<svg width="353" height="353" viewBox="0 0 353 353" fill="none" xmlns="http://www.w3.org/2000/svg">
<path d="M353 269.974H0V270.151H353V269.974Z" fill="#EBEBEB"/>
<path d="M317.629 281.334H294.247V281.51H317.629V281.334Z" fill="#EBEBEB"/>
<path d="M233.841 283.254H227.706V283.431H233.841V283.254Z" fill="#EBEBEB"/>
<path d="M293.541 274.782H279.993V274.959H293.541V274.782Z" fill="#EBEBEB"/>
<path d="M67.5289 275.968H37.0367V276.145H67.5289V275.968Z" fill="#EBEBEB"/>
<path d="M78.2883 275.968H73.8193V276.145H78.2883V275.968Z" fill="#EBEBEB"/>
<path d="M158.956 278.948H92.8178V279.124H158.956V278.948Z" fill="#EBEBEB"/>
<path d="M167.322 238.487H31.0005C29.9325 238.485 28.909 238.059 28.1545 237.304C27.4 236.548 26.9763 235.523 26.9763 234.455V42.8259C26.9856 41.7641 27.4134 40.7488 28.1669 40.0007C28.9204 39.2525 29.9386 38.8318 31.0005 38.83H167.322C168.391 38.83 169.417 39.2547 170.173 40.0107C170.929 40.7667 171.353 41.7921 171.353 42.8612V234.455C171.353 235.525 170.929 236.55 170.173 237.306C169.417 238.062 168.391 238.487 167.322 238.487ZM31.0005 38.9712C29.9793 38.973 29.0007 39.38 28.2793 40.1027C27.5579 40.8254 27.1528 41.8048 27.1528 42.8259V234.455C27.1528 235.477 27.5579 236.456 28.2793 237.179C29.0007 237.901 29.9793 238.308 31.0005 238.31H167.322C168.344 238.308 169.323 237.902 170.046 237.179C170.768 236.457 171.175 235.477 171.177 234.455V42.8259C171.175 41.8041 170.768 40.8248 170.046 40.1023C169.323 39.3797 168.344 38.973 167.322 38.9712H31.0005Z" fill="#EBEBEB"/>
<path d="M320.037 238.487H183.708C182.64 238.485 181.615 238.06 180.86 237.304C180.104 236.548 179.679 235.524 179.677 234.455V42.8259C179.688 41.7635 180.118 40.7482 180.872 40.0002C181.627 39.2522 182.646 38.8318 183.708 38.83H320.037C321.097 38.8336 322.114 39.2551 322.866 40.0031C323.618 40.7511 324.045 41.7653 324.054 42.8259V234.455C324.054 235.522 323.631 236.545 322.878 237.301C322.125 238.057 321.104 238.483 320.037 238.487ZM183.708 38.9712C182.686 38.973 181.707 39.3797 180.985 40.1023C180.262 40.8248 179.855 41.8041 179.854 42.8259V234.455C179.855 235.477 180.262 236.457 180.985 237.179C181.707 237.902 182.686 238.308 183.708 238.31H320.037C321.059 238.308 322.038 237.902 322.761 237.179C323.483 236.457 323.89 235.477 323.892 234.455V42.8259C323.89 41.8041 323.483 40.8248 322.761 40.1023C322.038 39.3797 321.059 38.973 320.037 38.9712H183.708Z" fill="#EBEBEB"/>
<path d="M250.574 155.369H232.599V163.015H250.574V155.369Z" fill="#FAFAFA"/>
<path d="M228.829 155.369H210.854V163.015H228.829V155.369Z" fill="#FAFAFA"/>
<path d="M207.077 155.369H189.102V163.015H207.077V155.369Z" fill="#FAFAFA"/>
<path d="M261.453 166.016H243.478V173.662H261.453V166.016Z" fill="#FAFAFA"/>
<path d="M239.701 166.016H221.726V173.662H239.701V166.016Z" fill="#FAFAFA"/>
<path d="M217.949 166.016H199.974V173.662H217.949V166.016Z" fill="#FAFAFA"/>
<path d="M196.197 166.016H178.223V173.662H196.197V166.016Z" fill="#FAFAFA"/>
<path d="M272.325 176.662H254.351V184.308H272.325V176.662Z" fill="#FAFAFA"/>
<path d="M295.143 198.661H277.169V206.307H295.143V198.661Z" fill="#FAFAFA"/>
<path d="M250.574 176.662H232.599V184.308H250.574V176.662Z" fill="#FAFAFA"/>
<path d="M228.829 176.662H210.854V184.308H228.829V176.662Z" fill="#FAFAFA"/>
<path d="M207.077 176.662H189.102V184.308H207.077V176.662Z" fill="#FAFAFA"/>
<path d="M185.325 176.662H167.35V184.308H185.325V176.662Z" fill="#FAFAFA"/>
<path d="M261.453 187.309H243.478V194.955H261.453V187.309Z" fill="#FAFAFA"/>
<path d="M239.701 187.309H221.726V194.955H239.701V187.309Z" fill="#FAFAFA"/>
<path d="M217.949 187.309H199.974V194.955H217.949V187.309Z" fill="#FAFAFA"/>
<path d="M196.197 187.309H178.223V194.955H196.197V187.309Z" fill="#FAFAFA"/>
<path d="M132.537 46.8995H114.563V54.5455H132.537V46.8995Z" fill="#FAFAFA"/>
<path d="M110.793 46.8995H92.8178V54.5455H110.793V46.8995Z" fill="#FAFAFA"/>
<path d="M143.417 57.546H125.442V65.192H143.417V57.546Z" fill="#FAFAFA"/>
<path d="M121.665 57.546H103.69V65.192H121.665V57.546Z" fill="#FAFAFA"/>
<path d="M78.1683 57.546H60.1935V65.192H78.1683V57.546Z" fill="#FAFAFA"/>
<path d="M56.4165 57.546H38.4417V65.192H56.4165V57.546Z" fill="#FAFAFA"/>
<path d="M132.537 68.1925H114.563V75.8385H132.537V68.1925Z" fill="#FAFAFA"/>
<path d="M110.793 68.1925H92.8178V75.8385H110.793V68.1925Z" fill="#FAFAFA"/>
<path d="M67.2888 68.1925H49.3141V75.8385H67.2888V68.1925Z" fill="#FAFAFA"/>
<path d="M55.0962 103.987H37.1215V111.633H55.0962V103.987Z" fill="#FAFAFA"/>
<path d="M76.8481 103.987H58.8734V111.633H76.8481V103.987Z" fill="#FAFAFA"/>
<path d="M65.9757 93.3402H48.0009V100.986H65.9757V93.3402Z" fill="#FAFAFA"/>
<path d="M150.329 91.7799H132.354V99.4259H150.329V91.7799Z" fill="#FAFAFA"/>
<path d="M128.584 91.7799H110.609V99.4259H128.584V91.7799Z" fill="#FAFAFA"/>
<path d="M139.456 102.426H121.481V110.072H139.456V102.426Z" fill="#FAFAFA"/>
<path d="M224.522 47.3584H206.547V55.0044H224.522V47.3584Z" fill="#FAFAFA"/>
<path d="M202.777 47.3584H184.803V55.0044H202.777V47.3584Z" fill="#FAFAFA"/>
<path d="M235.402 58.0049H217.427V65.6509H235.402V58.0049Z" fill="#FAFAFA"/>
<path d="M213.65 58.0049H195.675V65.6509H213.65V58.0049Z" fill="#FAFAFA"/>
<path d="M290.921 51.7145H272.947V59.3605H290.921V51.7145Z" fill="#FAFAFA"/>
<path d="M301.794 62.361H283.819V70.0069H301.794V62.361Z" fill="#FAFAFA"/>
<path d="M297.508 153.88H279.534V161.526H297.508V153.88Z" fill="#FAFAFA"/>
<path d="M280.042 62.361H262.067V70.0069H280.042V62.361Z" fill="#FAFAFA"/>
<path d="M191.898 58.0049H173.923V65.6509H191.898V58.0049Z" fill="#FAFAFA"/>
<path d="M246.274 68.6514H228.299V76.2973H246.274V68.6514Z" fill="#FAFAFA"/>
<path d="M224.522 68.6514H206.547V76.2973H224.522V68.6514Z" fill="#FAFAFA"/>
<path d="M202.777 68.6514H184.803V76.2973H202.777V68.6514Z" fill="#FAFAFA"/>
<path d="M235.402 79.2979H217.427V86.9438H235.402V79.2979Z" fill="#FAFAFA"/>
<path d="M213.65 79.2979H195.675V86.9438H213.65V79.2979Z" fill="#FAFAFA"/>
<path d="M76.0927 142.803H58.1179V150.449H76.0927V142.803Z" fill="#FAFAFA"/>
<path d="M54.3409 142.803H36.3661V150.449H54.3409V142.803Z" fill="#FAFAFA"/>
<path d="M130.469 153.449H112.494V161.095H130.469V153.449Z" fill="#FAFAFA"/>
<path d="M86.9651 153.449H68.9903V161.095H86.9651V153.449Z" fill="#FAFAFA"/>
<path d="M65.2203 153.449H47.2455V161.095H65.2203V153.449Z" fill="#FAFAFA"/>
<path d="M141.341 164.096H123.366V171.742H141.341V164.096Z" fill="#FAFAFA"/>
<path d="M119.596 164.096H101.622V171.742H119.596V164.096Z" fill="#FAFAFA"/>
<path d="M76.0927 164.096H58.1179V171.742H76.0927V164.096Z" fill="#FAFAFA"/>
<path d="M54.3409 164.096H36.3661V171.742H54.3409V164.096Z" fill="#FAFAFA"/>
<path d="M86.9651 174.742H68.9903V182.388H86.9651V174.742Z" fill="#FAFAFA"/>
<path d="M65.2203 174.742H47.2455V182.388H65.2203V174.742Z" fill="#FAFAFA"/>
<path d="M128.308 195.915H110.334V203.561H128.308V195.915Z" fill="#FAFAFA"/>
<path d="M106.557 195.915H88.5818V203.561H106.557V195.915Z" fill="#FAFAFA"/>
<path d="M79.8415 213.861H61.8668V221.507H79.8415V213.861Z" fill="#FAFAFA"/>
<path d="M58.0897 213.861H40.1149V221.507H58.0897V213.861Z" fill="#FAFAFA"/>
<path d="M134.218 224.508H116.243V232.154H134.218V224.508Z" fill="#FAFAFA"/>
<path d="M117.436 206.561H99.4613V214.207H117.436V206.561Z" fill="#FAFAFA"/>
<path d="M68.9621 224.508H50.9873V232.154H68.9621V224.508Z" fill="#FAFAFA"/>
<path d="M145.09 235.154H127.115V242.8H145.09V235.154Z" fill="#FAFAFA"/>
<path d="M123.338 235.154H105.363V242.8H123.338V235.154Z" fill="#FAFAFA"/>
<path d="M101.586 235.154H83.6116V242.8H101.586V235.154Z" fill="#FAFAFA"/>
<path d="M134.218 245.801H116.243V253.447H134.218V245.801Z" fill="#FAFAFA"/>
<path d="M112.466 245.801H94.491V253.447H112.466V245.801Z" fill="#FAFAFA"/>
<path d="M90.714 245.801H72.7392V253.447H90.714V245.801Z" fill="#FAFAFA"/>
<path d="M246.302 213.374H228.327V221.02H246.302V213.374Z" fill="#FAFAFA"/>
<path d="M224.55 213.374H206.576V221.02H224.55V213.374Z" fill="#FAFAFA"/>
<path d="M202.798 213.374H184.824V221.02H202.798V213.374Z" fill="#FAFAFA"/>
<path d="M257.175 224.021H239.2V231.667H257.175V224.021Z" fill="#FAFAFA"/>
<path d="M235.423 224.021H217.448V231.667H235.423V224.021Z" fill="#FAFAFA"/>
<path d="M213.678 224.021H195.703V231.667H213.678V224.021Z" fill="#FAFAFA"/>
<path d="M191.926 224.021H173.951V231.667H191.926V224.021Z" fill="#FAFAFA"/>
<path d="M224.55 234.667H206.576V242.313H224.55V234.667Z" fill="#FAFAFA"/>
<path d="M202.798 234.667H184.824V242.313H202.798V234.667Z" fill="#FAFAFA"/>
<path d="M235.423 245.314H217.448V252.96H235.423V245.314Z" fill="#FAFAFA"/>
<path d="M213.678 245.314H195.703V252.96H213.678V245.314Z" fill="#FAFAFA"/>
<path d="M191.926 245.314H173.951V252.96H191.926V245.314Z" fill="#FAFAFA"/>
<path d="M256.37 138.672H305.938V76.8692H256.37V138.672Z" fill="#F5F5F5"/>
<path d="M296.859 130.61C290.618 135.086 290.604 137.536 286.128 132.523C281.652 127.511 278.545 121.432 270.433 124.609C262.321 127.786 257.796 119.582 262.992 112.049C268.188 104.516 266.282 94.2298 262.992 89.3019C259.702 84.374 261.234 77.7447 266.48 81.4582C271.725 85.1718 278.828 85.1648 283.904 82.5526C288.98 79.9404 294.917 73.4593 294.494 84.7765C294.07 96.0936 299.859 92.5424 301.356 98.261C302.853 103.98 295.623 100.379 296.887 112.889C298.151 125.4 302.394 126.635 296.859 130.61Z" fill="#E0E0E0"/>
<path d="M266.324 132.516C273.914 135.884 277.133 137.543 280.684 130.045C284.236 122.547 291.402 112.565 296.576 115.332C301.751 118.1 300.184 105.505 290.222 108.667C280.261 111.83 277.903 110.228 274.394 102.659C270.885 95.091 271.725 90.8903 267.518 93.6437C263.31 96.3971 269.113 104.897 266.727 111.76C264.341 118.622 259.512 129.501 266.324 132.516Z" fill="#EBEBEB"/>
<path d="M292.926 94.2439C289.862 100.118 293.992 109.501 286.008 105.54C278.023 101.579 281.355 86.4779 274.479 90.0079C267.602 93.5379 272.255 103.951 266.388 104.467C260.521 104.982 261.149 81.8748 269.72 81.4018C278.291 80.9288 285.676 88.5395 288.253 85.9061C290.83 83.2727 298.031 77.2717 299.549 84.72C301.067 92.1683 295.277 89.7397 292.926 94.2439Z" fill="#EBEBEB"/>
<path d="M243.295 93.432H199.438V152.249H243.295V93.432Z" fill="#F5F5F5"/>
<path d="M237.103 146.34C235.832 148.698 204.451 136.865 205.333 134.338C206.216 131.81 229.852 129.657 231.935 126.197C234.018 122.738 206.858 118.107 207.317 115.784C207.776 113.461 233.509 115.509 233.99 113.172C234.47 110.835 206.914 106.768 208.75 103.288C210.586 99.8072 233.46 102.292 235.995 108.23C238.529 114.167 224.656 113.779 224.261 117.725C223.866 121.672 239.023 122.442 237.103 128.781C235.183 135.121 215.259 130.546 217.116 136.074C218.973 141.602 239.503 141.906 237.103 146.34Z" fill="#E6E6E6"/>
<path d="M213.099 146.029C209.004 146.989 204.267 139.675 209.131 141.306C213.996 142.937 217.194 145.069 213.099 146.029Z" fill="#EBEBEB"/>
<path d="M231.568 136.766C231.363 138.807 237.407 138.447 237.47 136.766C237.534 135.086 231.794 134.641 231.568 136.766Z" fill="#EBEBEB"/>
<path d="M208.75 124.482C210.967 128.132 217.469 126.557 217.399 124.87C217.328 123.183 206.364 120.542 208.75 124.482Z" fill="#EBEBEB"/>
<path d="M284.25 246.006C284.363 245.3 286.827 228.236 281.878 222.355C281.385 221.734 280.761 221.231 280.051 220.88C279.34 220.53 278.561 220.341 277.769 220.328C267.779 220.095 266.409 228.094 266.402 228.2L267.581 228.384C267.623 228.094 268.809 221.324 277.74 221.522C278.365 221.522 278.982 221.664 279.545 221.937C280.107 222.209 280.6 222.606 280.988 223.096C285.598 228.575 283.106 245.639 283.106 245.815L284.25 246.006Z" fill="#EBEBEB"/>
<path d="M284.857 245.229L286.05 245.194C286.05 245.038 285.655 229.485 293.315 226.273C300.827 223.124 304.201 229.598 304.342 229.874L305.409 229.337C305.366 229.259 301.406 221.571 292.856 225.172C284.433 228.702 284.836 244.558 284.857 245.229Z" fill="#EBEBEB"/>
<path d="M284.822 246.45C284.822 246.203 284.892 221.606 289.686 214.412C294.296 207.507 301.723 210.762 302.034 210.882L302.528 209.795C302.443 209.76 293.872 205.975 288.698 213.734C283.699 221.225 283.628 245.406 283.628 246.429L284.822 246.45Z" fill="#EBEBEB"/>
<path d="M276.343 220.921C276.343 220.921 280.706 222.524 279.407 226.322C278.108 230.121 264.312 236.369 264.312 236.369C264.312 236.369 258.537 231.074 263.839 222.461C269.141 213.847 276.223 218.203 276.343 220.921Z" fill="#E0E0E0"/>
<path d="M289.905 213.12C289.905 213.12 286.805 212.788 287.081 210.903C287.356 209.018 299.083 204.161 306.072 212.012C306.072 212.012 301.624 219.665 295.179 219.778C288.733 219.891 289.905 213.12 289.905 213.12Z" fill="#E0E0E0"/>
<path d="M293.082 225.722C293.082 225.722 290.964 224 293.251 223.152C295.539 222.305 306.877 222.552 306.997 233.742C306.997 233.742 293.816 235.931 292.171 231.66C290.526 227.388 293.082 225.722 293.082 225.722Z" fill="#E0E0E0"/>
<path d="M273.999 268.852H294.451L296.661 246.45H271.789L273.999 268.852Z" fill="#EBEBEB"/>
<path d="M270.702 248.929H297.755V243.987H270.702V248.929Z" fill="#E0E0E0"/>
<path d="M176.5 301.857C252.1 301.857 313.386 298.279 313.386 293.865C313.386 289.452 252.1 285.874 176.5 285.874C100.9 285.874 39.6136 289.452 39.6136 293.865C39.6136 298.279 100.9 301.857 176.5 301.857Z" fill="#F5F5F5"/>
<path d="M175.667 72.7745H67.7901C63.7351 72.7745 60.4478 76.0618 60.4478 80.1169V285.881C60.4478 289.936 63.7351 293.223 67.7901 293.223H175.667C179.722 293.223 183.009 289.936 183.009 285.881V80.1169C183.009 76.0618 179.722 72.7745 175.667 72.7745Z" fill="#263238"/>
<path d="M178.872 80.1663V285.443C178.872 285.84 178.793 286.234 178.64 286.601C178.486 286.968 178.262 287.3 177.978 287.58C177.695 287.859 177.36 288.079 176.991 288.227C176.622 288.376 176.227 288.449 175.829 288.443H67.303C66.9417 288.448 66.5832 288.38 66.2489 288.243C65.9146 288.106 65.6114 287.903 65.3575 287.646C65.1037 287.388 64.9044 287.083 64.7717 286.747C64.6389 286.411 64.5754 286.051 64.5849 285.69V79.9192C64.5717 79.6006 64.6215 79.2825 64.7316 78.9831C64.8416 78.6838 65.0097 78.4092 65.2262 78.175C65.4426 77.9408 65.7032 77.7517 65.993 77.6185C66.2828 77.4853 66.596 77.4106 66.9147 77.3988H94.0463C94.426 77.4039 94.7953 77.5231 95.1063 77.741C95.4173 77.9588 95.6555 78.2651 95.7901 78.6202L96.9197 81.3806C97.0554 81.7344 97.2941 82.0392 97.605 82.2557C97.916 82.4722 98.2847 82.5904 98.6635 82.595H144.857C145.233 82.5921 145.6 82.477 145.911 82.2645C146.222 82.052 146.462 81.7516 146.601 81.4018L147.723 78.6272C147.86 78.2714 148.099 77.9644 148.411 77.7455C148.723 77.5267 149.093 77.4059 149.474 77.3988H176.211C176.928 77.4191 177.61 77.7205 178.107 78.2382C178.605 78.7558 178.88 79.4482 178.872 80.1663Z" fill="#0993BD"/>
<path opacity="0.5" d="M178.879 90.2198H64.5849V276.9H178.879V90.2198Z" fill="white"/>
<path opacity="0.6" d="M77.1799 85.6661H78.5919V83.7811H77.1799V85.6661Z" fill="white"/>
<path opacity="0.6" d="M74.8784 85.6661H76.2904V83.1528H74.8784V85.6661Z" fill="white"/>
<path opacity="0.6" d="M72.5768 85.6661H73.9888V82.5315H72.5768V85.6661Z" fill="white"/>
<path opacity="0.6" d="M70.2753 85.6731H71.6873V81.9101H70.2753V85.6731Z" fill="white"/>
<path opacity="0.6" d="M165.945 83.1033H165.105V84.9883H165.945V83.1033Z" fill="white"/>
<path opacity="0.6" d="M166.517 85.6731H173.182V82.4184H166.517V85.6731Z" fill="white"/>
<path opacity="0.6" d="M121.707 77.6601C121.707 77.9701 121.615 78.2731 121.443 78.5309C121.271 78.7886 121.026 78.9895 120.74 79.1081C120.453 79.2268 120.138 79.2578 119.834 79.1973C119.53 79.1368 119.251 78.9876 119.032 78.7684C118.813 78.5492 118.663 78.2699 118.603 77.9659C118.542 77.6618 118.573 77.3467 118.692 77.0603C118.811 76.7739 119.012 76.5292 119.269 76.3569C119.527 76.1847 119.83 76.0928 120.14 76.0928C120.346 76.0919 120.55 76.1318 120.741 76.2102C120.932 76.2886 121.105 76.404 121.25 76.5498C121.396 76.6955 121.512 76.8686 121.59 77.0592C121.668 77.2498 121.708 77.454 121.707 77.6601Z" fill="white"/>
<path opacity="0.6" d="M124.884 77.6601C124.884 77.8584 124.826 78.0522 124.715 78.2171C124.605 78.3819 124.449 78.5104 124.266 78.5863C124.082 78.6622 123.881 78.6821 123.686 78.6434C123.492 78.6047 123.313 78.5092 123.173 78.369C123.033 78.2288 122.937 78.0502 122.899 77.8557C122.86 77.6612 122.88 77.4596 122.956 77.2765C123.032 77.0933 123.16 76.9367 123.325 76.8265C123.49 76.7164 123.684 76.6576 123.882 76.6576C124.148 76.6576 124.403 76.7632 124.591 76.9512C124.779 77.1392 124.884 77.3942 124.884 77.6601Z" fill="white"/>
<path d="M153.188 100.93H75.7044C72.706 100.93 70.2753 103.361 70.2753 106.359C70.2753 109.357 72.706 111.788 75.7044 111.788H153.188C156.186 111.788 158.617 109.357 158.617 106.359C158.617 103.361 156.186 100.93 153.188 100.93Z" fill="white"/>
<path d="M151.084 108.548C150.636 108.546 150.196 108.435 149.801 108.223C149.407 108.011 149.071 107.705 148.823 107.332C148.575 106.959 148.423 106.531 148.379 106.085C148.336 105.639 148.404 105.19 148.576 104.776C148.748 104.363 149.019 103.998 149.365 103.714C149.712 103.43 150.123 103.236 150.562 103.149C151.001 103.062 151.455 103.085 151.883 103.215C152.312 103.345 152.702 103.578 153.018 103.895C153.4 104.277 153.66 104.763 153.765 105.292C153.87 105.822 153.815 106.37 153.608 106.869C153.401 107.367 153.051 107.793 152.601 108.092C152.152 108.39 151.624 108.549 151.084 108.548ZM151.084 103.803C150.686 103.809 150.299 103.931 149.971 104.155C149.642 104.379 149.386 104.694 149.236 105.062C149.085 105.43 149.046 105.835 149.124 106.225C149.202 106.615 149.392 106.973 149.672 107.256C149.908 107.49 150.198 107.662 150.516 107.757C150.834 107.852 151.171 107.867 151.496 107.801C151.822 107.735 152.126 107.59 152.382 107.378C152.638 107.166 152.837 106.894 152.963 106.587C153.089 106.279 153.137 105.946 153.103 105.615C153.069 105.285 152.954 104.968 152.768 104.693C152.582 104.417 152.331 104.192 152.037 104.037C151.744 103.882 151.416 103.802 151.084 103.803Z" fill="#0993BD"/>
<path d="M154.515 109.614C154.421 109.613 154.331 109.578 154.261 109.515L152.503 107.75C152.469 107.718 152.442 107.68 152.424 107.637C152.406 107.595 152.396 107.549 152.396 107.503C152.396 107.456 152.406 107.411 152.424 107.368C152.442 107.326 152.469 107.287 152.503 107.256C152.536 107.222 152.575 107.196 152.618 107.178C152.661 107.16 152.707 107.151 152.754 107.151C152.8 107.151 152.846 107.16 152.889 107.178C152.932 107.196 152.972 107.222 153.004 107.256L154.762 109.013C154.795 109.046 154.822 109.085 154.84 109.128C154.857 109.171 154.867 109.218 154.867 109.264C154.867 109.311 154.857 109.357 154.84 109.4C154.822 109.443 154.795 109.482 154.762 109.515C154.694 109.576 154.607 109.611 154.515 109.614Z" fill="#0993BD"/>
<path opacity="0.2" d="M171.226 100.93H163.573C162.688 100.93 161.971 101.647 161.971 102.532V110.185C161.971 111.071 162.688 111.788 163.573 111.788H171.226C172.111 111.788 172.829 111.071 172.829 110.185V102.532C172.829 101.647 172.111 100.93 171.226 100.93Z" fill="black"/>
<path d="M165.55 103.782C165.55 103.922 165.509 104.058 165.431 104.174C165.353 104.29 165.243 104.381 165.114 104.434C164.985 104.488 164.843 104.502 164.706 104.474C164.569 104.447 164.443 104.38 164.345 104.281C164.246 104.183 164.179 104.057 164.152 103.92C164.124 103.783 164.138 103.641 164.192 103.512C164.245 103.383 164.336 103.273 164.452 103.195C164.568 103.117 164.704 103.076 164.844 103.076C165.031 103.076 165.211 103.15 165.343 103.283C165.476 103.415 165.55 103.595 165.55 103.782Z" fill="white"/>
<path d="M170.21 107.079C170.607 107.079 170.93 106.757 170.93 106.359C170.93 105.961 170.607 105.639 170.21 105.639C169.812 105.639 169.489 105.961 169.489 106.359C169.489 106.757 169.812 107.079 170.21 107.079Z" fill="white"/>
<path d="M165.105 109.981C165.503 109.981 165.825 109.658 165.825 109.261C165.825 108.863 165.503 108.541 165.105 108.541C164.707 108.541 164.385 108.863 164.385 109.261C164.385 109.658 164.707 109.981 165.105 109.981Z" fill="white"/>
<path d="M165.19 109.416L165.013 109.112L169.828 106.366L164.752 103.902L164.908 103.584L170.584 106.345L165.19 109.416Z" fill="white"/>
<path opacity="0.6" d="M178.879 121.383H64.5849V276.9H178.879V121.383Z" fill="white"/>
<path opacity="0.2" d="M121.3 156.999L129.332 148.967L121.3 140.935L113.267 148.967L121.3 156.999Z" fill="white"/>
<path opacity="0.2" d="M77.6671 161.822H96.7432C98.5719 161.822 100.054 160.34 100.054 158.511V139.435C100.054 137.606 98.5719 136.124 96.7432 136.124H77.6671C75.8384 136.124 74.3559 137.606 74.3559 139.435V158.511C74.3559 160.34 75.8384 161.822 77.6671 161.822Z" fill="black"/>
<path opacity="0.2" d="M75.7397 169.369H98.6706C99.0451 169.369 99.4042 169.221 99.669 168.956C99.9338 168.691 100.083 168.332 100.083 167.957C100.083 167.583 99.9338 167.224 99.669 166.959C99.4042 166.694 99.0451 166.545 98.6706 166.545H75.7397C75.3652 166.545 75.0061 166.694 74.7413 166.959C74.4765 167.224 74.3277 167.583 74.3277 167.957C74.3277 168.332 74.4765 168.691 74.7413 168.956C75.0061 169.221 75.3652 169.369 75.7397 169.369Z" fill="black"/>
<path opacity="0.2" d="M111.76 209.83H130.836C132.665 209.83 134.147 208.348 134.147 206.519V187.443C134.147 185.614 132.665 184.132 130.836 184.132H111.76C109.931 184.132 108.449 185.614 108.449 187.443V206.519C108.449 208.348 109.931 209.83 111.76 209.83Z" fill="black"/>
<path opacity="0.2" d="M109.832 217.377H132.728C133.103 217.377 133.462 217.229 133.726 216.964C133.991 216.699 134.14 216.34 134.14 215.965C134.14 215.591 133.991 215.232 133.726 214.967C133.462 214.702 133.103 214.553 132.728 214.553H109.832C109.458 214.553 109.099 214.702 108.834 214.967C108.569 215.232 108.42 215.591 108.42 215.965C108.42 216.34 108.569 216.699 108.834 216.964C109.099 217.229 109.458 217.377 109.832 217.377Z" fill="black"/>
<path opacity="0.2" d="M77.6671 209.83H96.7432C98.5719 209.83 100.054 208.348 100.054 206.519V187.443C100.054 185.614 98.5719 184.132 96.7432 184.132H77.6671C75.8384 184.132 74.3559 185.614 74.3559 187.443V206.519C74.3559 208.348 75.8384 209.83 77.6671 209.83Z" fill="black"/>
<path opacity="0.2" d="M75.7397 217.377H98.6706C99.0451 217.377 99.4042 217.229 99.669 216.964C99.9338 216.699 100.083 216.34 100.083 215.965C100.083 215.591 99.9338 215.232 99.669 214.967C99.4042 214.702 99.0451 214.553 98.6706 214.553H75.7397C75.3652 214.553 75.0061 214.702 74.7413 214.967C74.4765 215.232 74.3277 215.591 74.3277 215.965C74.3277 216.34 74.4765 216.699 74.7413 216.964C75.0061 217.229 75.3652 217.377 75.7397 217.377Z" fill="black"/>
<path opacity="0.2" d="M83.0186 189.73H91.3917L95.5712 196.974L91.3917 204.225H83.0186L78.8391 196.974L83.0186 189.73Z" fill="white"/>
<path opacity="0.2" d="M128.033 192.194V202.481H114.556L128.033 192.194Z" fill="white"/>
<path opacity="0.2" d="M145.853 161.822H164.929C166.757 161.822 168.24 160.34 168.24 158.511V139.435C168.24 137.606 166.757 136.124 164.929 136.124H145.853C144.024 136.124 142.541 137.606 142.541 139.435V158.511C142.541 160.34 144.024 161.822 145.853 161.822Z" fill="black"/>
<path opacity="0.2" d="M143.925 169.369H166.849C167.223 169.369 167.583 169.221 167.847 168.956C168.112 168.691 168.261 168.332 168.261 167.957C168.261 167.583 168.112 167.224 167.847 166.959C167.583 166.694 167.223 166.545 166.849 166.545H143.925C143.551 166.545 143.192 166.694 142.927 166.959C142.662 167.224 142.513 167.583 142.513 167.957C142.513 168.332 142.662 168.691 142.927 168.956C143.192 169.221 143.551 169.369 143.925 169.369Z" fill="black"/>
<path opacity="0.2" d="M157.442 155.657C161.316 154.742 163.716 150.86 162.801 146.986C161.887 143.111 158.005 140.711 154.13 141.626C150.256 142.54 147.856 146.423 148.77 150.297C149.685 154.172 153.567 156.571 157.442 155.657Z" fill="white"/>
<path opacity="0.2" d="M84.0917 141.426C84.0917 141.426 93.9757 152.595 93.6651 152.595C93.3544 152.595 80.7382 155.207 80.7382 155.207L84.0917 141.426Z" fill="white"/>
<path opacity="0.2" d="M111.76 161.822H130.836C132.665 161.822 134.147 160.34 134.147 158.511V139.435C134.147 137.606 132.665 136.124 130.836 136.124H111.76C109.931 136.124 108.449 137.606 108.449 139.435V158.511C108.449 160.34 109.931 161.822 111.76 161.822Z" fill="black"/>
<path opacity="0.2" d="M109.832 169.369H132.728C133.103 169.369 133.462 169.221 133.726 168.956C133.991 168.691 134.14 168.332 134.14 167.957C134.14 167.583 133.991 167.224 133.726 166.959C133.462 166.694 133.103 166.545 132.728 166.545H109.832C109.458 166.545 109.099 166.694 108.834 166.959C108.569 167.224 108.42 167.583 108.42 167.957C108.42 168.332 108.569 168.691 108.834 168.956C109.099 169.221 109.458 169.369 109.832 169.369Z" fill="black"/>
<g opacity="0.2">
<path d="M78.5567 106.373V107.559H78.2813V106.401C78.2945 106.316 78.288 106.228 78.2624 106.146C78.2369 106.063 78.1929 105.987 78.1337 105.924C78.0746 105.861 78.0018 105.812 77.921 105.781C77.8402 105.75 77.7534 105.737 77.6671 105.745C77.5714 105.745 77.4766 105.764 77.3885 105.802C77.3005 105.839 77.221 105.895 77.155 105.964C77.0889 106.033 77.0377 106.115 77.0044 106.205C76.971 106.295 76.9563 106.39 76.9611 106.486V107.559H76.6787V104.672H76.9611V105.9C77.044 105.776 77.1582 105.676 77.2921 105.611C77.426 105.545 77.5748 105.516 77.7236 105.526C77.8361 105.518 77.949 105.535 78.0544 105.575C78.1599 105.616 78.2554 105.678 78.3345 105.758C78.4136 105.839 78.4744 105.935 78.5127 106.041C78.5511 106.148 78.5661 106.261 78.5567 106.373Z" fill="black"/>
<path d="M80.3852 107.432C80.2649 107.533 80.1115 107.586 79.9545 107.58C79.8742 107.589 79.7929 107.58 79.7166 107.553C79.6403 107.527 79.5709 107.483 79.5134 107.427C79.4559 107.37 79.4118 107.301 79.3843 107.225C79.3568 107.149 79.3466 107.068 79.3544 106.987V105.745H78.9944V105.512H79.3544V105.067H79.6298V105.512H80.2581V105.745H79.6298V106.966C79.6232 107.016 79.6278 107.066 79.6434 107.113C79.6589 107.161 79.685 107.204 79.7196 107.24C79.7542 107.276 79.7965 107.304 79.8433 107.321C79.8901 107.338 79.9402 107.345 79.9898 107.34C80.1006 107.343 80.2086 107.306 80.2934 107.234L80.3852 107.432Z" fill="black"/>
<path d="M81.8961 107.432C81.7709 107.529 81.6167 107.581 81.4583 107.58C81.3783 107.589 81.2972 107.58 81.2212 107.554C81.1451 107.527 81.0761 107.484 81.0191 107.427C80.9621 107.37 80.9187 107.301 80.8921 107.224C80.8655 107.148 80.8563 107.067 80.8653 106.987V105.745H80.4982V105.512H80.8653V105.067H81.1901V105.512H81.8113V105.745H81.1901V106.966C81.1822 107.015 81.1858 107.065 81.2005 107.113C81.2151 107.16 81.2404 107.204 81.2745 107.24C81.3086 107.276 81.3506 107.304 81.3971 107.321C81.4437 107.339 81.4936 107.345 81.5431 107.34C81.6538 107.343 81.7618 107.306 81.8466 107.234L81.8961 107.432Z" fill="black"/>
<path d="M84.4871 106.535C84.495 106.672 84.4743 106.809 84.4264 106.938C84.3785 107.066 84.3044 107.183 84.2088 107.282C84.1131 107.38 83.9981 107.457 83.871 107.509C83.7439 107.56 83.6075 107.584 83.4705 107.58C83.3174 107.585 83.1657 107.551 83.0298 107.48C82.8938 107.41 82.7782 107.306 82.6939 107.178V108.315H82.4185V105.491H82.6797V105.9C82.7622 105.766 82.8789 105.656 83.0178 105.581C83.1567 105.507 83.313 105.471 83.4705 105.476C83.6088 105.472 83.7465 105.497 83.8746 105.549C84.0027 105.601 84.1184 105.68 84.2143 105.78C84.3101 105.88 84.3839 105.999 84.4309 106.129C84.4779 106.259 84.497 106.397 84.4871 106.535ZM84.2118 106.535C84.209 106.385 84.1619 106.239 84.0765 106.116C83.991 105.992 83.871 105.897 83.7314 105.841C83.5919 105.786 83.439 105.772 83.2921 105.803C83.1451 105.834 83.0106 105.908 82.9053 106.015C82.8001 106.123 82.7289 106.258 82.7006 106.406C82.6723 106.553 82.6882 106.706 82.7463 106.845C82.8044 106.983 82.9021 107.101 83.0272 107.184C83.1522 107.268 83.2991 107.312 83.4493 107.312C83.5509 107.313 83.6516 107.294 83.7455 107.255C83.8394 107.216 83.9245 107.158 83.9957 107.086C84.0669 107.013 84.1227 106.927 84.1598 106.833C84.1969 106.738 84.2146 106.637 84.2118 106.535Z" fill="black"/>
<path d="M84.7695 107.312L84.8966 107.093C85.1024 107.242 85.3489 107.323 85.6026 107.326C85.9909 107.326 86.1532 107.192 86.1532 106.987C86.1532 106.458 84.826 106.874 84.826 106.07C84.826 105.731 85.1154 105.484 85.6308 105.484C85.8788 105.484 86.1223 105.55 86.3368 105.674L86.2168 105.9C86.0377 105.78 85.8254 105.718 85.6096 105.724C85.2425 105.724 85.0801 105.865 85.0801 106.062C85.0801 106.613 86.4074 106.197 86.4074 106.98C86.4074 107.333 86.0968 107.566 85.5602 107.566C85.2771 107.563 85.0016 107.474 84.7695 107.312Z" fill="black"/>
<path d="M86.7816 105.709C86.7806 105.682 86.7852 105.655 86.7951 105.629C86.8049 105.603 86.8199 105.58 86.839 105.56C86.8581 105.54 86.881 105.525 86.9063 105.514C86.9316 105.503 86.9588 105.498 86.9863 105.498C87.0425 105.498 87.0963 105.52 87.1361 105.56C87.1758 105.599 87.1981 105.653 87.1981 105.709C87.1981 105.766 87.1758 105.82 87.1361 105.859C87.0963 105.899 87.0425 105.921 86.9863 105.921C86.9588 105.921 86.9316 105.916 86.9063 105.905C86.881 105.894 86.8581 105.879 86.839 105.859C86.8199 105.839 86.8049 105.816 86.7951 105.79C86.7852 105.764 86.7806 105.737 86.7816 105.709ZM86.7816 107.369C86.7806 107.341 86.7852 107.314 86.7951 107.288C86.8049 107.262 86.8199 107.239 86.839 107.219C86.8581 107.199 86.881 107.184 86.9063 107.173C86.9316 107.162 86.9588 107.157 86.9863 107.157C87.0144 107.156 87.0424 107.161 87.0685 107.171C87.0946 107.181 87.1184 107.197 87.1383 107.217C87.1581 107.236 87.1737 107.26 87.184 107.286C87.1943 107.313 87.1991 107.341 87.1981 107.369C87.1981 107.425 87.1758 107.479 87.1361 107.518C87.0963 107.558 87.0425 107.58 86.9863 107.58C86.9588 107.58 86.9316 107.575 86.9063 107.564C86.881 107.553 86.8581 107.538 86.839 107.518C86.8199 107.498 86.8049 107.475 86.7951 107.449C86.7852 107.423 86.7806 107.396 86.7816 107.369Z" fill="black"/>
<path d="M88.7654 104.283H89.0125L87.7347 107.947H87.4805L88.7654 104.283Z" fill="black"/>
<path d="M89.8103 104.283H90.0645L88.7796 107.947H88.5325L89.8103 104.283Z" fill="black"/>
<path d="M93.425 106.373V107.559H93.1497V106.401C93.1497 105.971 92.9308 105.745 92.5637 105.745C92.4658 105.736 92.3673 105.75 92.2755 105.785C92.1837 105.82 92.1008 105.875 92.033 105.946C91.9653 106.017 91.9144 106.103 91.884 106.196C91.8537 106.29 91.8447 106.389 91.8577 106.486V107.559H91.5824V106.401C91.5824 105.971 91.3635 105.745 90.9893 105.745C90.8918 105.738 90.7939 105.752 90.7026 105.788C90.6114 105.823 90.5291 105.878 90.4617 105.949C90.3942 106.02 90.3432 106.105 90.3124 106.198C90.2816 106.29 90.2716 106.389 90.2833 106.486V107.559H90.008V105.512H90.2763V105.9C90.3535 105.773 90.4641 105.67 90.5961 105.601C90.7281 105.533 90.8763 105.502 91.0246 105.512C91.1726 105.5 91.3205 105.536 91.4473 105.613C91.574 105.69 91.6732 105.806 91.7306 105.942C91.8134 105.805 91.9319 105.692 92.0736 105.616C92.2153 105.54 92.3749 105.504 92.5355 105.512C92.6543 105.492 92.7761 105.5 92.8911 105.536C93.0061 105.572 93.1111 105.634 93.1976 105.718C93.2842 105.802 93.3498 105.905 93.3893 106.018C93.4288 106.132 93.4411 106.254 93.425 106.373Z" fill="black"/>
<path d="M95.8607 105.512L94.837 107.806C94.6676 108.209 94.4487 108.336 94.131 108.336C93.9454 108.341 93.7653 108.272 93.6298 108.145L93.7639 107.94C93.8112 107.99 93.8682 108.029 93.9314 108.056C93.9945 108.083 94.0625 108.096 94.131 108.096C94.3146 108.096 94.4417 108.011 94.5546 107.757L94.6464 107.559L93.7357 105.512H94.0181L94.7947 107.256L95.5642 105.512H95.8607Z" fill="black"/>
<path d="M96.2561 104.672H96.5314V107.559H96.2561V104.672Z" fill="black"/>
<path d="M97.2374 104.869C97.2393 104.816 97.2616 104.766 97.2998 104.729C97.338 104.692 97.3891 104.672 97.4422 104.672C97.4678 104.671 97.4933 104.675 97.5173 104.684C97.5412 104.693 97.5631 104.707 97.5816 104.725C97.6 104.743 97.6147 104.764 97.6247 104.788C97.6347 104.811 97.6399 104.837 97.6399 104.862C97.6408 104.889 97.6364 104.915 97.6269 104.94C97.6174 104.965 97.603 104.988 97.5845 105.007C97.5661 105.026 97.5439 105.041 97.5195 105.051C97.495 105.062 97.4687 105.067 97.4422 105.067C97.3891 105.067 97.338 105.046 97.2998 105.01C97.2616 104.973 97.2393 104.922 97.2374 104.869ZM97.301 105.512H97.5763V107.559H97.301V105.512Z" fill="black"/>
<path d="M100.252 106.373V107.559H99.9767V106.401C99.9899 106.316 99.9834 106.228 99.9578 106.146C99.9323 106.063 99.8882 105.987 99.8291 105.924C99.77 105.861 99.6972 105.812 99.6164 105.781C99.5356 105.75 99.4488 105.737 99.3625 105.745C99.2667 105.745 99.172 105.764 99.0839 105.802C98.9959 105.839 98.9164 105.895 98.8504 105.964C98.7843 106.033 98.7331 106.115 98.6998 106.205C98.6664 106.295 98.6517 106.39 98.6565 106.486V107.559H98.3812V105.512H98.6494V105.9C98.7309 105.77 98.8462 105.665 98.983 105.595C99.1198 105.525 99.2729 105.494 99.426 105.505C99.54 105.498 99.6541 105.516 99.7603 105.558C99.8665 105.6 99.9623 105.664 100.041 105.747C100.12 105.83 100.179 105.928 100.216 106.037C100.252 106.145 100.265 106.26 100.252 106.373Z" fill="black"/>
<path d="M101.742 106.535L101.262 106.973V107.559H100.958V104.672H101.24V106.606L102.462 105.491H102.801L101.925 106.331L102.885 107.538H102.547L101.742 106.535Z" fill="black"/>
<path d="M104.121 104.283H104.375L103.076 107.947H102.829L104.121 104.283Z" fill="black"/>
</g>
<path opacity="0.2" d="M200.61 133.829V193.133C200.61 194.034 200.252 194.898 199.615 195.535C198.978 196.171 198.115 196.529 197.214 196.529H85.6661C84.7654 196.529 83.9017 196.171 83.2648 195.535C82.628 194.898 82.2702 194.034 82.2702 193.133V133.829C82.2702 133.384 82.3581 132.943 82.5288 132.531C82.6996 132.119 82.9498 131.745 83.2653 131.431C83.5807 131.116 83.9551 130.866 84.3671 130.696C84.779 130.527 85.2204 130.44 85.6661 130.441H197.214C197.66 130.44 198.101 130.527 198.513 130.696C198.925 130.866 199.299 131.116 199.615 131.431C199.93 131.745 200.181 132.119 200.351 132.531C200.522 132.943 200.61 133.384 200.61 133.829Z" fill="black"/>
<path d="M205.552 128.181V187.485C205.552 187.931 205.464 188.373 205.293 188.785C205.123 189.197 204.873 189.571 204.557 189.887C204.242 190.202 203.868 190.452 203.456 190.623C203.044 190.793 202.602 190.881 202.156 190.881H90.6081C89.7074 190.881 88.8437 190.523 88.2068 189.887C87.57 189.25 87.2122 188.386 87.2122 187.485V128.181C87.2122 127.736 87.3001 127.295 87.4709 126.883C87.6416 126.471 87.8918 126.097 88.2073 125.783C88.5227 125.468 88.8971 125.218 89.3091 125.049C89.721 124.879 90.1625 124.792 90.6081 124.793H202.156C202.602 124.792 203.043 124.879 203.455 125.049C203.867 125.218 204.241 125.468 204.557 125.783C204.872 126.097 205.123 126.471 205.293 126.883C205.464 127.295 205.552 127.736 205.552 128.181Z" fill="#0993BD"/>
<path opacity="0.5" d="M205.552 136.258V187.528C205.552 187.974 205.464 188.415 205.293 188.827C205.123 189.239 204.873 189.614 204.557 189.929C204.242 190.244 203.868 190.494 203.456 190.665C203.044 190.836 202.602 190.924 202.156 190.924H90.6081C89.7074 190.924 88.8437 190.566 88.2068 189.929C87.57 189.292 87.2122 188.428 87.2122 187.528V136.258H205.552Z" fill="white"/>
<path d="M174.643 145.387H94.3499V159.182H174.643V145.387Z" fill="white"/>
<path d="M102.681 152.108V154.077H102.059V152.178C102.059 151.472 101.728 151.176 101.142 151.176C100.992 151.164 100.841 151.186 100.7 151.24C100.56 151.294 100.433 151.378 100.329 151.487C100.225 151.595 100.146 151.726 100.099 151.869C100.051 152.012 100.036 152.163 100.054 152.312V154.077H99.433V149.284H100.054V151.14C100.202 150.968 100.388 150.831 100.598 150.742C100.807 150.653 101.034 150.613 101.262 150.625C101.458 150.609 101.655 150.636 101.839 150.706C102.023 150.776 102.189 150.886 102.325 151.028C102.461 151.17 102.563 151.341 102.625 151.528C102.686 151.714 102.706 151.913 102.681 152.108Z" fill="#263238"/>
<path d="M105.752 153.908C105.538 154.074 105.273 154.159 105.003 154.148C104.858 154.165 104.711 154.149 104.573 154.101C104.435 154.053 104.309 153.974 104.205 153.871C104.101 153.768 104.022 153.643 103.973 153.505C103.925 153.367 103.907 153.22 103.923 153.075V151.197H103.337V150.689H103.923V149.94H104.537V150.689H105.519V151.197H104.537V153.054C104.527 153.128 104.533 153.204 104.555 153.276C104.578 153.348 104.616 153.414 104.668 153.469C104.719 153.524 104.783 153.567 104.853 153.594C104.923 153.621 104.999 153.632 105.074 153.626C105.25 153.629 105.422 153.572 105.561 153.463L105.752 153.908Z" fill="#263238"/>
<path d="M108.343 153.908C108.128 154.072 107.864 154.157 107.594 154.148C107.449 154.165 107.301 154.148 107.163 154.1C107.025 154.053 106.899 153.974 106.794 153.871C106.69 153.769 106.61 153.644 106.56 153.506C106.511 153.368 106.493 153.221 106.507 153.075V151.197H105.9V150.689H106.479V149.94H107.1V150.689H108.082V151.197H107.1V153.054C107.089 153.128 107.095 153.204 107.118 153.276C107.141 153.348 107.179 153.414 107.231 153.469C107.282 153.524 107.346 153.567 107.416 153.594C107.486 153.621 107.562 153.632 107.637 153.626C107.813 153.628 107.985 153.571 108.124 153.463L108.343 153.908Z" fill="#263238"/>
<path d="M112.635 152.362C112.648 152.593 112.613 152.825 112.531 153.042C112.449 153.259 112.322 153.456 112.159 153.621C111.996 153.786 111.8 153.915 111.584 154C111.368 154.085 111.137 154.123 110.906 154.113C110.676 154.124 110.448 154.079 110.24 153.982C110.032 153.884 109.851 153.738 109.712 153.555V155.32H109.091V150.646H109.684V151.19C109.826 151.003 110.012 150.853 110.225 150.754C110.437 150.654 110.671 150.608 110.906 150.618C111.137 150.607 111.368 150.644 111.584 150.728C111.8 150.812 111.996 150.94 112.159 151.105C112.322 151.269 112.449 151.466 112.531 151.683C112.613 151.899 112.648 152.131 112.635 152.362ZM112.007 152.362C111.996 152.137 111.919 151.92 111.786 151.739C111.653 151.557 111.47 151.418 111.259 151.34C111.048 151.261 110.818 151.246 110.599 151.297C110.38 151.348 110.18 151.461 110.025 151.624C109.869 151.787 109.765 151.992 109.725 152.214C109.685 152.435 109.711 152.664 109.799 152.871C109.888 153.078 110.035 153.254 110.223 153.378C110.411 153.503 110.631 153.569 110.856 153.569C111.013 153.572 111.169 153.543 111.314 153.483C111.459 153.423 111.589 153.333 111.698 153.219C111.806 153.106 111.889 152.971 111.943 152.823C111.996 152.675 112.018 152.518 112.007 152.362Z" fill="#263238"/>
<path d="M113.059 153.71L113.32 153.223C113.678 153.454 114.095 153.577 114.52 153.576C115.092 153.576 115.332 153.407 115.332 153.11C115.332 152.348 113.172 153.011 113.172 151.649C113.172 151.035 113.722 150.625 114.584 150.625C115.017 150.617 115.445 150.722 115.826 150.929L115.565 151.423C115.269 151.24 114.925 151.147 114.577 151.155C114.033 151.155 113.772 151.352 113.772 151.621C113.772 152.433 115.939 151.769 115.939 153.103C115.939 153.717 115.367 154.113 114.464 154.113C113.966 154.122 113.476 153.982 113.059 153.71Z" fill="#263238"/>
<path d="M116.441 151.084C116.439 151.026 116.449 150.968 116.47 150.914C116.491 150.86 116.523 150.811 116.564 150.77C116.605 150.729 116.655 150.697 116.709 150.676C116.763 150.654 116.82 150.644 116.878 150.646C116.935 150.645 116.992 150.656 117.045 150.678C117.098 150.7 117.146 150.732 117.185 150.773C117.225 150.814 117.256 150.863 117.276 150.916C117.296 150.97 117.305 151.027 117.302 151.084C117.304 151.141 117.294 151.198 117.274 151.252C117.254 151.305 117.223 151.354 117.183 151.395C117.144 151.437 117.097 151.47 117.044 151.493C116.992 151.516 116.935 151.528 116.878 151.529C116.82 151.529 116.763 151.517 116.709 151.495C116.656 151.472 116.607 151.44 116.566 151.398C116.526 151.357 116.493 151.308 116.472 151.254C116.45 151.2 116.44 151.142 116.441 151.084ZM116.441 153.689C116.439 153.631 116.449 153.573 116.47 153.519C116.491 153.465 116.523 153.416 116.564 153.375C116.605 153.334 116.655 153.302 116.709 153.281C116.763 153.26 116.82 153.25 116.878 153.252C116.935 153.25 116.992 153.261 117.045 153.283C117.098 153.305 117.146 153.337 117.185 153.378C117.225 153.419 117.256 153.468 117.276 153.522C117.296 153.575 117.305 153.632 117.302 153.689C117.305 153.747 117.296 153.804 117.276 153.858C117.256 153.912 117.225 153.961 117.186 154.003C117.146 154.044 117.098 154.077 117.045 154.1C116.993 154.122 116.936 154.134 116.878 154.134C116.818 154.135 116.758 154.124 116.703 154.1C116.647 154.077 116.597 154.042 116.556 153.998C116.515 153.954 116.483 153.902 116.463 153.845C116.443 153.789 116.436 153.728 116.441 153.668V153.689Z" fill="#263238"/>
<path d="M119.865 148.641H120.422L118.304 154.72H117.74L119.865 148.641Z" fill="#263238"/>
<path d="M121.7 148.641H122.258L120.14 154.72H119.582L121.7 148.641Z" fill="#263238"/>
<path d="M126.889 154.077V150.78L125.252 153.527H124.962L123.331 150.802V154.077H122.71V149.559H123.239L125.124 152.736L126.981 149.559H127.511V154.077H126.889Z" fill="#263238"/>
<path d="M130.61 152.496V154.063H129.968V152.496L128.174 149.552H128.88L130.292 151.931L131.747 149.552H132.389L130.61 152.496Z" fill="#263238"/>
<path d="M132.961 149.559H133.611V153.513H136.053V154.077H132.961V149.559Z" fill="#263238"/>
<path d="M136.795 149.559H137.444V154.077H136.795V149.559Z" fill="#263238"/>
<path d="M142.683 149.559V154.077H142.153L139.442 150.703V154.077H138.8V149.559H139.329L142.033 152.927V149.559H142.683Z" fill="#263238"/>
<path d="M145.507 152.065L144.681 152.906V154.077H144.024V149.559H144.667V152.08L147.123 149.559H147.829L145.902 151.592L147.949 154.077H147.194L145.507 152.065Z" fill="#263238"/>
<path d="M149.997 148.641H150.555L148.437 154.72H147.872L149.997 148.641Z" fill="#263238"/>
<path d="M96.8915 131.245H97.2727V132.657C96.8891 132.977 96.402 133.145 95.903 133.13C95.6453 133.146 95.3871 133.109 95.1443 133.021C94.9015 132.934 94.6792 132.797 94.4911 132.62C94.303 132.443 94.1532 132.23 94.0507 131.993C93.9483 131.756 93.8954 131.5 93.8954 131.242C93.8954 130.984 93.9483 130.728 94.0507 130.491C94.1532 130.254 94.303 130.041 94.4911 129.864C94.6792 129.687 94.9015 129.55 95.1443 129.463C95.3871 129.375 95.6453 129.338 95.903 129.353C96.1631 129.337 96.4237 129.376 96.6673 129.468C96.9109 129.561 97.1318 129.705 97.315 129.89L97.068 130.137C96.9222 129.991 96.7479 129.877 96.5559 129.802C96.364 129.726 96.1585 129.692 95.9525 129.699C95.7411 129.685 95.5291 129.714 95.3295 129.785C95.1299 129.856 94.9471 129.968 94.7923 130.112C94.6376 130.257 94.5142 130.432 94.4298 130.626C94.3454 130.821 94.3019 131.03 94.3019 131.242C94.3019 131.454 94.3454 131.663 94.4298 131.858C94.5142 132.052 94.6376 132.227 94.7923 132.372C94.9471 132.516 95.1299 132.627 95.3295 132.699C95.5291 132.77 95.7411 132.799 95.9525 132.785C96.2976 132.794 96.6367 132.693 96.9197 132.495L96.8915 131.245Z" fill="white"/>
<path d="M100.732 131.824H98.3952C98.4033 131.961 98.4382 132.094 98.498 132.217C98.5578 132.34 98.6413 132.45 98.7436 132.54C98.8459 132.631 98.9651 132.7 99.0943 132.745C99.2235 132.789 99.3602 132.807 99.4966 132.799C99.6572 132.804 99.817 132.774 99.9646 132.71C100.112 132.647 100.244 132.552 100.351 132.432L100.563 132.679C100.361 132.888 100.103 133.033 99.8195 133.096C99.5363 133.16 99.2406 133.139 98.9692 133.036C98.6979 132.933 98.4627 132.752 98.2929 132.517C98.123 132.282 98.0261 132.001 98.014 131.711C98.014 131.35 98.1575 131.003 98.4131 130.748C98.6686 130.492 99.0152 130.349 99.3766 130.349C99.7379 130.349 100.085 130.492 100.34 130.748C100.596 131.003 100.739 131.35 100.739 131.711C100.739 131.711 100.732 131.782 100.732 131.824ZM98.3952 131.549H100.372C100.372 131.287 100.268 131.036 100.083 130.85C99.8972 130.665 99.6458 130.561 99.3836 130.561C99.1215 130.561 98.8701 130.665 98.6847 130.85C98.4993 131.036 98.3952 131.287 98.3952 131.549Z" fill="white"/>
<path d="M102.977 132.94C102.807 133.07 102.598 133.137 102.384 133.13C102.274 133.143 102.163 133.13 102.059 133.094C101.954 133.057 101.859 132.998 101.781 132.92C101.702 132.842 101.642 132.748 101.605 132.644C101.568 132.54 101.554 132.429 101.565 132.319V130.61H101.071V130.292H101.565V129.678H101.946V130.292H102.794V130.61H101.946V132.276C101.937 132.343 101.942 132.411 101.962 132.476C101.983 132.54 102.017 132.599 102.063 132.649C102.109 132.698 102.166 132.737 102.229 132.762C102.291 132.786 102.359 132.796 102.427 132.792C102.579 132.796 102.727 132.743 102.843 132.643L102.977 132.94Z" fill="white"/>
<path d="M105.13 129.389H105.519V132.77H107.601V133.109H105.13V129.389Z" fill="white"/>
<path d="M108.089 129.431C108.09 129.396 108.097 129.361 108.112 129.329C108.126 129.297 108.147 129.268 108.172 129.243C108.198 129.219 108.228 129.2 108.261 129.188C108.294 129.175 108.329 129.169 108.364 129.17C108.399 129.168 108.434 129.173 108.467 129.185C108.5 129.197 108.53 129.215 108.555 129.239C108.581 129.262 108.602 129.291 108.616 129.323C108.631 129.355 108.638 129.389 108.639 129.424C108.639 129.497 108.61 129.567 108.559 129.619C108.507 129.67 108.437 129.699 108.364 129.699C108.291 129.699 108.221 129.67 108.169 129.619C108.118 129.567 108.089 129.497 108.089 129.424V129.431ZM108.173 130.314H108.548V133.138H108.173V130.314Z" fill="white"/>
<path d="M112.169 131.486V133.109H111.795V131.521C111.811 131.404 111.801 131.286 111.766 131.174C111.73 131.062 111.669 130.96 111.589 130.874C111.508 130.789 111.409 130.723 111.3 130.681C111.19 130.639 111.072 130.622 110.955 130.631C110.822 130.622 110.688 130.643 110.563 130.691C110.439 130.739 110.326 130.814 110.233 130.91C110.141 131.006 110.07 131.121 110.026 131.247C109.983 131.374 109.967 131.508 109.981 131.641V133.109H109.599V130.285H109.96V130.801C110.073 130.625 110.232 130.482 110.42 130.388C110.607 130.293 110.816 130.251 111.026 130.264C111.186 130.251 111.347 130.274 111.498 130.331C111.648 130.389 111.783 130.48 111.893 130.598C112.003 130.715 112.085 130.856 112.133 131.01C112.181 131.164 112.193 131.326 112.169 131.486Z" fill="white"/>
<path d="M114.231 131.704L113.567 132.311V133.109H113.193V129.198H113.567V131.867L115.24 130.342H115.706L114.513 131.485L115.819 133.137H115.353L114.231 131.704Z" fill="white"/>
<path d="M179.388 152.214C179.384 151.959 179.433 151.706 179.531 151.471C179.629 151.236 179.774 151.023 179.957 150.846C180.141 150.669 180.358 150.531 180.596 150.441C180.834 150.351 181.089 150.31 181.343 150.322C181.595 150.313 181.845 150.357 182.078 150.45C182.312 150.544 182.523 150.685 182.699 150.865L182.452 151.119C182.309 150.973 182.137 150.858 181.948 150.781C181.758 150.705 181.555 150.668 181.35 150.675C180.942 150.675 180.551 150.837 180.262 151.125C179.973 151.414 179.811 151.806 179.811 152.214C179.811 152.622 179.973 153.013 180.262 153.302C180.551 153.591 180.942 153.753 181.35 153.753C181.555 153.761 181.759 153.725 181.949 153.649C182.139 153.572 182.31 153.456 182.452 153.308L182.699 153.562C182.522 153.743 182.309 153.884 182.075 153.978C181.84 154.071 181.589 154.115 181.336 154.106C181.082 154.117 180.828 154.077 180.59 153.987C180.352 153.896 180.135 153.758 179.953 153.581C179.77 153.404 179.626 153.191 179.529 152.956C179.431 152.721 179.383 152.468 179.388 152.214Z" fill="white"/>
<path d="M183.129 152.214C183.117 151.824 183.221 151.44 183.428 151.11C183.635 150.78 183.937 150.519 184.293 150.361C184.65 150.204 185.045 150.156 185.429 150.225C185.812 150.294 186.167 150.476 186.446 150.747C186.726 151.019 186.918 151.367 186.998 151.749C187.078 152.13 187.042 152.527 186.895 152.888C186.748 153.249 186.496 153.558 186.173 153.775C185.849 153.992 185.468 154.107 185.078 154.106C184.824 154.116 184.571 154.075 184.333 153.984C184.096 153.894 183.879 153.756 183.697 153.579C183.514 153.402 183.37 153.189 183.273 152.955C183.175 152.72 183.126 152.468 183.129 152.214ZM186.659 152.214C186.664 151.904 186.576 151.6 186.407 151.341C186.238 151.082 185.996 150.878 185.711 150.757C185.426 150.636 185.112 150.602 184.808 150.66C184.504 150.717 184.224 150.864 184.004 151.082C183.783 151.299 183.633 151.577 183.571 151.88C183.509 152.183 183.538 152.498 183.656 152.785C183.773 153.071 183.973 153.316 184.23 153.488C184.487 153.661 184.79 153.753 185.099 153.753C185.302 153.757 185.504 153.719 185.693 153.643C185.881 153.567 186.052 153.454 186.196 153.31C186.34 153.167 186.453 152.996 186.529 152.807C186.605 152.619 186.642 152.417 186.638 152.214H186.659Z" fill="white"/>
<path d="M190.818 151.635C190.818 152.425 190.246 152.898 189.3 152.898H188.297V154.077H187.909V150.378H189.321C190.246 150.378 190.818 150.837 190.818 151.635ZM190.422 151.635C190.422 151.035 190.034 150.696 189.286 150.696H188.297V152.553H189.286C190.034 152.553 190.422 152.214 190.422 151.635Z" fill="white"/>
<path d="M192.943 152.793V154.077H192.554V152.793L191.065 150.378H191.481L192.759 152.496L194.037 150.378H194.425L192.943 152.793Z" fill="white"/>
<path d="M197.729 146.093V158.476H175.342V146.093H197.729ZM198.435 145.387H174.636V159.182H198.435V145.387Z" fill="white"/>
<path d="M195.393 169.617H157.558C155.878 169.617 154.515 170.979 154.515 172.659V180.545C154.515 182.226 155.878 183.588 157.558 183.588H195.393C197.073 183.588 198.435 182.226 198.435 180.545V172.659C198.435 170.979 197.073 169.617 195.393 169.617Z" fill="#0993BD"/>
<path d="M165.098 178.018L165.345 177.503C165.773 177.852 166.311 178.04 166.863 178.032C167.661 178.032 168 177.728 168 177.326C168 176.196 165.176 176.909 165.176 175.208C165.176 174.502 165.726 173.888 166.941 173.888C167.464 173.881 167.978 174.023 168.423 174.297L168.205 174.82C167.826 174.58 167.389 174.45 166.941 174.446C166.157 174.446 165.818 174.777 165.818 175.152C165.818 176.274 168.642 175.568 168.642 177.27C168.642 177.976 168.07 178.583 166.856 178.583C166.223 178.602 165.602 178.403 165.098 178.018Z" fill="white"/>
<path d="M173.57 173.937V178.54H172.914V176.5H170.266V178.555H169.609V173.951H170.266V175.928H172.914V173.951L173.57 173.937Z" fill="white"/>
<path d="M177.912 177.39H175.441L174.933 178.54H174.227L176.345 173.937H176.994L179.112 178.54H178.406L177.912 177.39ZM177.679 176.86L176.691 174.608L175.695 176.86H177.679Z" fill="white"/>
<path d="M182.854 178.54L181.859 177.128H181.569H180.432V178.54H179.776V173.937H181.569C182.769 173.937 183.497 174.537 183.497 175.54C183.51 175.86 183.418 176.176 183.234 176.439C183.05 176.702 182.785 176.897 182.48 176.994L183.574 178.54H182.854ZM182.854 175.54C182.854 174.883 182.416 174.509 181.576 174.509H180.454V176.578H181.576C182.395 176.578 182.854 176.196 182.854 175.54Z" fill="white"/>
<path d="M187.902 177.969V178.54H184.563V173.937H187.796V174.509H185.205V175.921H187.514V176.5H185.205V177.99L187.902 177.969Z" fill="white"/>
<path d="M245.872 123.649H234.23C233.04 123.649 232.076 124.613 232.076 125.802V137.444C232.076 138.633 233.04 139.597 234.23 139.597H245.872C247.061 139.597 248.025 138.633 248.025 137.444V125.802C248.025 124.613 247.061 123.649 245.872 123.649Z" fill="#0993BD"/>
<path d="M236.376 128.838C236.922 128.838 237.364 128.395 237.364 127.849C237.364 127.304 236.922 126.861 236.376 126.861C235.83 126.861 235.387 127.304 235.387 127.849C235.387 128.395 235.83 128.838 236.376 128.838Z" fill="white"/>
<path d="M243.732 132.41C244.278 132.41 244.721 131.968 244.721 131.422C244.721 130.876 244.278 130.433 243.732 130.433C243.186 130.433 242.744 130.876 242.744 131.422C242.744 131.968 243.186 132.41 243.732 132.41Z" fill="white"/>
<path d="M237.738 135.397C237.738 135.592 237.68 135.783 237.572 135.946C237.463 136.108 237.309 136.235 237.128 136.31C236.948 136.385 236.749 136.404 236.557 136.366C236.365 136.328 236.189 136.234 236.051 136.095C235.913 135.957 235.819 135.781 235.781 135.589C235.742 135.398 235.762 135.199 235.837 135.018C235.912 134.838 236.038 134.683 236.201 134.575C236.363 134.466 236.555 134.408 236.75 134.408C237.012 134.408 237.264 134.512 237.449 134.698C237.634 134.883 237.738 135.134 237.738 135.397Z" fill="white"/>
<path d="M236.835 135.552L236.658 135.248L243.351 131.436L236.298 128.005L236.453 127.687L244.107 131.408L236.835 135.552Z" fill="white"/>
<path d="M240.457 137.67C240.457 137.67 240.457 140.988 242.349 142.541C242.349 142.541 239.722 142.089 238.515 138.235L240.457 137.67Z" fill="#0993BD"/>
<path d="M240.471 293.223H245.617V239.39H240.471V293.223Z" fill="#0993BD"/>
<path opacity="0.2" d="M240.471 293.223H245.617V239.39H240.471V293.223Z" fill="black"/>
<path d="M203.625 293.223H208.771V239.39H203.625V293.223Z" fill="#0993BD"/>
<path opacity="0.2" d="M203.625 293.223H208.771V239.39H203.625V293.223Z" fill="black"/>
<path d="M247.241 293.223H252.388V239.39H247.241V293.223Z" fill="#0993BD"/>
<path d="M284.087 293.223H289.234V239.39H284.087V293.223Z" fill="#0993BD"/>
<path d="M193.077 237.4V241.381C193.076 241.534 193.105 241.685 193.163 241.827C193.221 241.968 193.306 242.096 193.414 242.205C193.521 242.313 193.649 242.399 193.79 242.457C193.931 242.516 194.082 242.546 194.235 242.546H294.106C294.414 242.546 294.711 242.424 294.929 242.205C295.148 241.987 295.27 241.69 295.27 241.381V237.4C295.269 237.092 295.145 236.797 294.927 236.58C294.708 236.363 294.413 236.242 294.106 236.242H194.235C193.928 236.242 193.633 236.364 193.416 236.581C193.199 236.798 193.077 237.092 193.077 237.4Z" fill="#0993BD"/>
<path opacity="0.2" d="M193.077 237.4V241.381C193.076 241.534 193.105 241.685 193.163 241.827C193.221 241.968 193.306 242.096 193.414 242.205C193.521 242.313 193.649 242.399 193.79 242.457C193.931 242.516 194.082 242.546 194.235 242.546H294.106C294.414 242.546 294.711 242.424 294.929 242.205C295.148 241.987 295.27 241.69 295.27 241.381V237.4C295.269 237.092 295.145 236.797 294.927 236.58C294.708 236.363 294.413 236.242 294.106 236.242H194.235C193.928 236.242 193.633 236.364 193.416 236.581C193.199 236.798 193.077 237.092 193.077 237.4Z" fill="white"/>
<path opacity="0.3" d="M255.113 237.4V241.381C255.113 241.69 255.236 241.987 255.454 242.205C255.673 242.424 255.969 242.546 256.278 242.546H294.106C294.414 242.546 294.711 242.424 294.929 242.205C295.148 241.987 295.27 241.69 295.27 241.381V237.4C295.269 237.092 295.145 236.797 294.927 236.58C294.708 236.363 294.413 236.242 294.106 236.242H256.278C255.97 236.242 255.675 236.363 255.457 236.58C255.239 236.797 255.115 237.092 255.113 237.4Z" fill="white"/>
<path d="M254.351 147.554C256 148.011 257.451 149.005 258.473 150.378C259.496 151.751 260.033 153.425 259.999 155.136C259.999 158.568 260.097 158.525 262.053 159.782C264.009 161.039 260.796 163.312 260.796 163.312C261.02 163.677 261.118 164.104 261.076 164.53C261.034 164.956 260.854 165.356 260.563 165.67C259.54 166.807 261.538 167.181 261.538 167.181C261.538 167.181 260.705 168.981 259.631 168.007C259.631 168.007 259.744 169.948 256.596 170.082C253.447 170.217 248.392 171.551 247.192 169.878C245.992 168.204 242.172 163.361 242.172 163.361C242.172 163.361 238.819 162.041 239.8 157.466C240.781 152.891 244.318 149.58 247.622 149.7C250.927 149.82 254.351 147.554 254.351 147.554Z" fill="#263238"/>
<path d="M231.822 175.229C231.822 175.229 229.182 175.759 229.189 176.246C229.196 176.733 230.22 180.538 230.693 181.004C231.183 181.41 231.718 181.758 232.288 182.042L231.617 188.198L235.225 189.13L235.275 182.564C235.275 182.564 236.545 180.637 235.635 178.738C234.724 176.839 231.822 175.229 231.822 175.229Z" fill="#E4897B"/>
<path opacity="0.2" d="M231.822 175.229C231.822 175.229 229.182 175.759 229.189 176.246C229.196 176.733 230.22 180.538 230.693 181.004C231.183 181.41 231.718 181.758 232.288 182.042L231.617 188.198L235.225 189.13L235.275 182.564C235.275 182.564 236.545 180.637 235.635 178.738C234.724 176.839 231.822 175.229 231.822 175.229Z" fill="black"/>
<path d="M241.41 175.949C239.023 177.658 238.12 187.104 237.174 188.474C236.228 189.843 235.853 185.862 235.853 185.862L231.053 185.636C231.053 185.636 230.396 191.248 233.171 195.244C235.945 199.24 241.057 196.268 243.958 189.865C246.86 183.461 241.41 175.949 241.41 175.949Z" fill="#263238"/>
<path opacity="0.2" d="M233.171 195.244C233.675 196.043 234.445 196.638 235.345 196.925C238.134 197.722 241.699 194.807 243.951 189.865C244.624 188.326 244.908 186.646 244.777 184.972C244.467 180.164 241.41 175.949 241.41 175.949C239.03 177.658 238.12 187.104 237.174 188.474C236.228 189.843 235.86 185.862 235.86 185.862L231.053 185.629C231.053 185.629 230.396 191.255 233.171 195.244Z" fill="white"/>
<path d="M241.339 176.041C240.118 176.196 236.997 186.504 236.997 186.504L244.805 189.914L246.874 183.835L241.339 176.041Z" fill="#0993BD"/>
<path opacity="0.5" d="M246.874 183.807L244.805 189.914L242.793 189.046L236.997 186.532C236.997 186.532 240.118 176.225 241.339 176.069L243.641 179.296L246.874 183.807Z" fill="white"/>
<path opacity="0.2" d="M246.874 183.807L244.806 189.914L242.793 189.046C242.076 187.487 241.777 185.768 241.926 184.058C242.074 182.349 242.665 180.708 243.641 179.296L246.874 183.807Z" fill="black"/>
<path d="M210.035 287.257L205.27 285.951L206.124 274.33L210.875 275.644L210.035 287.257Z" fill="#E4897B"/>
<path d="M204.98 285.316L210.508 285.704C210.554 285.704 210.599 285.713 210.641 285.731C210.683 285.749 210.721 285.775 210.753 285.808C210.784 285.841 210.809 285.88 210.825 285.923C210.841 285.966 210.849 286.011 210.847 286.057V290.448C210.841 290.562 210.812 290.674 210.762 290.776C210.712 290.879 210.643 290.971 210.558 291.046C210.472 291.122 210.373 291.179 210.265 291.216C210.157 291.253 210.043 291.268 209.929 291.26C208.002 291.098 207.105 290.921 204.662 290.731C202.494 290.67 200.333 290.455 198.195 290.088C196.183 289.622 196.699 287.639 197.588 287.66C199.923 287.532 202.185 286.802 204.154 285.542C204.399 285.383 204.688 285.304 204.98 285.316Z" fill="#263238"/>
<path d="M202.269 285.725C202.193 285.637 202.144 285.529 202.128 285.414C202.112 285.299 202.129 285.181 202.177 285.076C202.194 285.005 202.229 284.94 202.279 284.887C202.328 284.834 202.39 284.794 202.46 284.772C203.081 284.582 204.408 285.626 204.578 285.746C204.592 285.763 204.602 285.782 204.609 285.803C204.615 285.823 204.616 285.845 204.613 285.866C204.606 285.887 204.594 285.906 204.578 285.921C204.562 285.936 204.542 285.946 204.521 285.951C204.083 286.029 203.638 286.057 203.194 286.036C202.857 286.053 202.527 285.942 202.269 285.725ZM202.53 285.019C202.495 285.029 202.464 285.048 202.439 285.074C202.414 285.1 202.397 285.132 202.389 285.168C202.362 285.236 202.352 285.309 202.361 285.382C202.369 285.455 202.396 285.524 202.438 285.584C202.657 285.824 203.3 285.902 204.196 285.789C203.646 285.386 202.862 284.913 202.53 285.019Z" fill="#0993BD"/>
<path d="M204.415 285.93C203.949 285.605 203.286 284.518 203.434 283.996C203.461 283.901 203.518 283.819 203.598 283.761C203.677 283.703 203.774 283.674 203.872 283.678C203.961 283.67 204.051 283.684 204.134 283.717C204.217 283.75 204.292 283.802 204.352 283.868C204.811 284.384 204.599 285.81 204.599 285.852C204.593 285.87 204.584 285.887 204.572 285.902C204.56 285.916 204.545 285.928 204.528 285.937C204.52 285.941 204.512 285.943 204.503 285.943C204.495 285.943 204.486 285.941 204.479 285.937C204.457 285.942 204.435 285.939 204.415 285.93ZM203.879 283.925C203.716 283.925 203.667 284.01 203.653 284.073C203.693 284.659 203.944 285.211 204.359 285.626C204.464 285.09 204.39 284.534 204.147 284.045C204.118 284.008 204.082 283.978 204.041 283.958C203.999 283.937 203.953 283.926 203.907 283.925H203.879Z" fill="#0993BD"/>
<path opacity="0.2" d="M210.875 275.644L206.124 274.337L205.637 280.981L210.416 282.047L210.875 275.644Z" fill="black"/>
<path d="M216.255 287.088L220.752 289.135L221.896 284.306L223.435 277.811L218.952 275.757L217.406 282.245L216.255 287.088Z" fill="#E4897B"/>
<path opacity="0.2" d="M217.406 282.245L221.896 284.306L223.435 277.811L218.952 275.757L217.406 282.245Z" fill="black"/>
<path d="M216.071 286.417L221.465 287.674C221.557 287.691 221.638 287.744 221.691 287.82C221.744 287.897 221.764 287.992 221.748 288.083L221.042 292.418C221.017 292.528 220.97 292.633 220.905 292.725C220.839 292.818 220.756 292.896 220.661 292.956C220.565 293.017 220.458 293.058 220.347 293.077C220.235 293.096 220.121 293.093 220.011 293.068C218.133 292.602 217.264 292.284 214.892 291.705C212.761 291.301 210.661 290.744 208.609 290.039C206.696 289.255 207.522 287.384 208.404 287.547C210.728 287.787 213.074 287.425 215.217 286.495C215.487 286.381 215.785 286.354 216.071 286.417Z" fill="#263238"/>
<path d="M213.332 286.389C213.268 286.291 213.234 286.177 213.234 286.061C213.234 285.944 213.268 285.83 213.332 285.732C213.361 285.665 213.407 285.607 213.465 285.562C213.523 285.518 213.592 285.489 213.664 285.478C214.306 285.386 215.45 286.629 215.584 286.777C215.593 286.796 215.598 286.816 215.598 286.837C215.598 286.858 215.593 286.878 215.584 286.897C215.575 286.918 215.56 286.935 215.541 286.946C215.522 286.957 215.5 286.963 215.478 286.961C215.035 286.967 214.593 286.927 214.158 286.841C213.836 286.798 213.542 286.637 213.332 286.389ZM213.699 285.725C213.663 285.729 213.629 285.743 213.6 285.766C213.571 285.788 213.55 285.818 213.537 285.852C213.5 285.916 213.481 285.987 213.481 286.061C213.481 286.134 213.5 286.206 213.537 286.269C213.713 286.544 214.335 286.721 215.238 286.749C214.758 286.262 214.052 285.676 213.713 285.725H213.699Z" fill="#0993BD"/>
<path d="M215.415 286.947C214.998 286.558 214.518 285.379 214.751 284.885C214.793 284.796 214.864 284.723 214.952 284.678C215.04 284.633 215.141 284.619 215.238 284.638C215.326 284.649 215.411 284.679 215.486 284.725C215.562 284.771 215.626 284.833 215.676 284.906C216.05 285.492 215.612 286.862 215.605 286.904C215.587 286.939 215.557 286.966 215.521 286.982C215.505 286.987 215.487 286.987 215.471 286.982C215.459 286.983 215.447 286.98 215.437 286.974C215.427 286.967 215.419 286.958 215.415 286.947ZM215.203 284.885C215.041 284.885 214.977 284.935 214.956 284.998C214.909 285.589 215.08 286.176 215.436 286.65C215.618 286.136 215.633 285.578 215.478 285.055C215.455 285.014 215.424 284.978 215.386 284.95C215.348 284.922 215.305 284.903 215.259 284.892L215.203 284.885Z" fill="#0993BD"/>
<path d="M249.585 221.112L251.039 205.058L277.867 205.686C277.867 205.686 280.988 228.038 278.708 232.168C274.592 239.503 247.573 235.338 241.29 235.959C238.67 237.336 224.861 283.106 224.861 283.106L217.13 279.985C217.13 279.985 225.447 241.353 227.339 234.095C229.972 223.964 240.746 224.141 249.585 221.112Z" fill="#263238"/>
<path d="M205.164 279.195L211.984 279.823C211.984 279.823 220.35 237.216 220.978 237.054C222.143 236.722 225.532 236.348 227.332 235.868C239.984 232.578 271.153 226.52 271.153 226.52L259.66 215.443C259.66 215.443 207.564 221.684 206.434 233.933C205.877 239.814 205.164 279.195 205.164 279.195Z" fill="#263238"/>
<path opacity="0.2" d="M222.842 237.082C224.007 236.75 225.553 236.341 227.374 235.867C226.866 236.136 228.335 229.514 229.796 227.784C232.691 224.367 244.332 222.524 248.512 221.853C252 221.296 263.719 220.258 263.719 220.258C263.719 220.258 243.033 218.472 227.445 222.75C219.742 224.868 221.112 232.387 222.842 237.082Z" fill="black"/>
<path d="M236.983 177.34C236.999 177.397 237.002 177.456 236.992 177.515C236.983 177.573 236.961 177.628 236.928 177.677C236.895 177.726 236.852 177.767 236.802 177.798C236.752 177.829 236.696 177.848 236.637 177.855L232.083 178.491C231.957 178.506 231.83 178.476 231.724 178.406C231.618 178.336 231.54 178.231 231.504 178.11L229.224 169.263C229.207 169.203 229.203 169.14 229.211 169.078C229.219 169.016 229.239 168.956 229.271 168.902C229.302 168.848 229.344 168.801 229.395 168.763C229.445 168.726 229.502 168.699 229.563 168.685L234.117 168.049C234.251 168.045 234.383 168.087 234.491 168.167C234.599 168.248 234.676 168.363 234.71 168.494L236.983 177.34Z" fill="#263238"/>
<path opacity="0.5" d="M234.194 168.508L236.51 177.439C236.53 177.49 236.538 177.545 236.533 177.599C236.528 177.654 236.51 177.706 236.482 177.753C236.453 177.8 236.414 177.839 236.367 177.868C236.321 177.896 236.268 177.914 236.213 177.919L232.352 178.456C232.09 178.456 231.596 178.42 231.533 178.166L229.224 169.207C229.161 168.953 229.577 168.685 229.831 168.649L233.693 168.106C233.812 168.099 233.928 168.136 234.021 168.211C234.114 168.285 234.175 168.391 234.194 168.508Z" fill="white"/>
<path d="M216.537 278.192L216.255 280.797L225.2 283.946L226.04 282.047L216.537 278.192Z" fill="#0993BD"/>
<path d="M203.745 276.9L204.02 279.498L212.534 280.473L212.894 278.432L203.745 276.9Z" fill="#0993BD"/>
<path d="M250.425 208.334C248.858 199.346 246.225 187.309 241.339 176.041C243.907 174.958 246.549 174.061 249.246 173.358C253.186 172.294 257.184 171.458 261.22 170.852C264.01 170.555 266.819 170.479 269.621 170.626C269.621 170.626 275.665 181.922 278.729 208.341L250.425 208.334Z" fill="#0993BD"/>
<path opacity="0.6" d="M278.722 208.334H250.425C248.858 199.346 246.225 187.309 241.339 176.041C243.906 174.955 246.548 174.058 249.246 173.358C253.186 172.294 257.184 171.458 261.22 170.852C264.01 170.555 266.819 170.479 269.621 170.626C270.171 171.714 270.661 172.831 271.09 173.973C272.631 178.022 273.905 182.168 274.902 186.384C276.631 193.614 277.907 200.945 278.722 208.334Z" fill="white"/>
<path opacity="0.2" d="M274.895 186.384C270.313 189.794 263.649 184.972 263.649 184.972L271.104 173.965C272.639 178.017 273.905 182.166 274.895 186.384Z" fill="black"/>
<path d="M254.746 178.081C259.208 179.07 262.667 172.638 262.667 172.638C262.667 172.638 262.667 170.937 255.904 171.784C249.14 172.631 248.463 176.691 254.746 178.081Z" fill="#263238"/>
<path opacity="0.2" d="M254.746 178.081C259.208 179.07 262.667 172.638 262.667 172.638C262.667 172.638 262.667 170.937 255.904 171.784C249.14 172.631 248.463 176.691 254.746 178.081Z" fill="white"/>
<path opacity="0.5" d="M250.249 186.949L261.453 185.742L264.164 198.661L253.306 199.516L250.249 186.949Z" fill="white"/>
<path opacity="0.2" d="M250.249 186.949L264.164 198.661L261.453 185.742L250.249 186.949Z" fill="black"/>
<path d="M244.516 182.183L240.449 179.515C240.449 179.515 238.72 174.311 238.331 173.796C237.943 173.281 233.651 174.453 233.178 174.502C232.705 174.551 233.961 179.868 234.533 180.326C235.105 180.785 236.976 180.842 236.976 180.842L241.593 184.972L244.516 182.183Z" fill="#E4897B"/>
<path d="M268.937 170.626C266.226 171.254 259.709 182.522 256.229 184.598C252.748 186.673 243.111 180.03 243.111 180.03L239.814 184.132C239.814 184.132 247.615 191.008 254.442 191.192C261.269 191.375 270.949 181.696 272.389 178.159C273.829 174.622 272.241 169.864 268.937 170.626Z" fill="#263238"/>
<path opacity="0.2" d="M268.937 170.626C266.226 171.254 259.709 182.522 256.229 184.598C252.748 186.673 243.111 180.03 243.111 180.03L239.814 184.132C239.814 184.132 247.615 191.008 254.442 191.192C261.269 191.375 270.949 181.696 272.389 178.159C273.829 174.622 272.241 169.864 268.937 170.626Z" fill="white"/>
<path d="M254.548 160.756C255.614 164.618 258.156 171.41 261.792 172.525C261.792 172.525 259.116 176.91 255.106 177.277C252.557 177.51 251.145 174.629 251.145 174.629C253.743 174.142 252.748 172.236 250.701 169.85L254.548 160.756Z" fill="#E4897B"/>
<path opacity="0.2" d="M252.981 164.498L250.708 169.878C251.187 170.434 251.624 171.027 252.014 171.65C254.569 171.847 256.405 167.795 255.777 166.143C255.572 165.43 253.454 165.013 252.981 164.498Z" fill="black"/>
<path d="M245.688 154.614C248.124 155.624 247.658 158.285 243.619 163.128C241.127 161.01 239.779 156.111 241.085 154.543C242.391 152.976 243.57 153.724 245.688 154.614Z" fill="#263238"/>
<path d="M255.734 156.676C256.582 161.949 257.344 164.985 255.318 168.247C252.275 173.147 245.321 172.208 242.906 167.294C240.753 162.881 239.722 154.995 244.318 151.762C245.335 151.049 246.516 150.608 247.751 150.48C248.986 150.353 250.233 150.543 251.373 151.032C252.514 151.521 253.511 152.294 254.269 153.277C255.027 154.26 255.522 155.42 255.706 156.647L255.734 156.676Z" fill="#E4897B"/>
<path d="M248.286 159.845C248.385 160.269 248.237 160.664 247.954 160.721C247.672 160.777 247.382 160.495 247.291 160.071C247.199 159.648 247.34 159.259 247.608 159.189C247.877 159.118 248.166 159.436 248.286 159.845Z" fill="#263238"/>
<path d="M243.478 160.968C243.57 161.392 243.422 161.787 243.146 161.843C242.871 161.9 242.567 161.618 242.44 161.194C242.313 160.77 242.497 160.375 242.772 160.311C243.048 160.248 243.379 160.509 243.478 160.968Z" fill="#263238"/>
<path d="M245.095 160.777C244.88 162.185 244.472 163.556 243.881 164.851C244.218 164.994 244.582 165.061 244.948 165.048C245.314 165.034 245.673 164.941 245.999 164.773L245.095 160.777Z" fill="#DE5753"/>
<path d="M249.26 158.031C249.289 158.031 249.317 158.024 249.342 158.012C249.368 158 249.39 157.982 249.409 157.96C249.432 157.937 249.451 157.909 249.464 157.878C249.477 157.847 249.483 157.814 249.483 157.78C249.483 157.747 249.477 157.714 249.464 157.683C249.451 157.652 249.432 157.624 249.409 157.6C249.105 157.332 248.741 157.141 248.348 157.041C247.955 156.942 247.544 156.937 247.149 157.028C247.088 157.048 247.035 157.09 247.003 157.146C246.97 157.202 246.959 157.269 246.973 157.332C246.994 157.396 247.039 157.449 247.098 157.48C247.157 157.512 247.226 157.519 247.291 157.501C247.602 157.435 247.925 157.444 248.233 157.526C248.541 157.608 248.825 157.762 249.063 157.975C249.09 157.997 249.122 158.014 249.156 158.024C249.19 158.033 249.225 158.036 249.26 158.031Z" fill="#263238"/>
<path d="M240.922 159.803C240.97 159.792 241.013 159.769 241.048 159.735C241.082 159.701 241.107 159.659 241.12 159.612C241.187 159.304 241.325 159.015 241.524 158.77C241.722 158.525 241.976 158.33 242.264 158.2C242.319 158.171 242.361 158.123 242.383 158.065C242.406 158.007 242.407 157.943 242.387 157.885C242.366 157.826 242.326 157.777 242.272 157.745C242.219 157.714 242.156 157.703 242.094 157.713C241.723 157.876 241.396 158.125 241.141 158.439C240.886 158.753 240.709 159.124 240.626 159.521C240.618 159.553 240.616 159.586 240.62 159.619C240.625 159.652 240.636 159.683 240.654 159.711C240.671 159.74 240.693 159.764 240.72 159.784C240.747 159.803 240.777 159.817 240.81 159.824C240.848 159.824 240.887 159.817 240.922 159.803Z" fill="#263238"/>
<path d="M252.628 152.531C250.383 153.943 251.265 156.464 256.031 160.601C258.149 158.088 258.7 153.054 257.16 151.719C255.621 150.385 254.584 151.331 252.628 152.531Z" fill="#263238"/>
<path d="M259.144 160.262C259.066 161.604 258.46 162.861 257.457 163.757C256.116 164.929 254.682 163.912 254.414 162.253C254.167 160.749 254.577 158.335 256.229 157.805C256.591 157.691 256.977 157.671 257.35 157.746C257.723 157.82 258.07 157.988 258.361 158.233C258.652 158.478 258.876 158.792 259.013 159.147C259.15 159.502 259.195 159.885 259.144 160.262Z" fill="#E4897B"/>
<path d="M246.874 165.91C247.232 166.44 247.552 166.995 247.834 167.569L248.159 167.47C249.62 167.011 250.15 166.32 250.277 165.691C250.356 165.207 250.272 164.71 250.037 164.279C249.26 164.962 248.345 165.47 247.354 165.769L246.874 165.91Z" fill="#263238"/>
<path d="M247.368 165.762L247.665 166.242C249.041 165.811 249.952 165.317 250.249 164.766C250.205 164.594 250.138 164.427 250.051 164.272C249.274 164.955 248.359 165.463 247.368 165.762Z" fill="white"/>
<path d="M248.159 167.484C249.62 167.025 250.15 166.334 250.277 165.705C249.723 165.886 249.206 166.166 248.752 166.531C248.459 166.779 248.251 167.112 248.159 167.484Z" fill="#A24E3F"/>
<path d="M257.132 152.496C257.132 152.496 258.431 150.378 255.643 148.26C252.854 146.142 249.472 148.26 249.472 148.26C249.472 148.26 248.9 147.709 246.874 147.307C244.848 146.904 242.094 149.778 240.421 150.463C238.748 151.148 237.025 152.962 237.908 155.151C238.79 157.339 236.136 162.373 240.096 161.808C239.738 161.632 239.46 161.326 239.321 160.951C239.182 160.577 239.192 160.163 239.348 159.796C239.814 158.313 241.466 158.271 241.523 155.2C241.579 152.129 244.481 154.07 244.481 154.07C244.481 154.07 245.399 152.658 246.655 152.778C247.912 152.898 250.101 153.866 250.404 157.72C250.708 161.575 253.68 162.556 256.243 160.283C258.806 158.01 259.321 158.052 259.773 159.196C259.773 159.196 260.747 157.53 258.65 156.979C256.553 156.428 256.342 153.619 257.132 152.496Z" fill="#263238"/>
<path d="M260.578 177.594L269.424 184.181C269.424 184.181 275.728 177.121 272.099 171.622C268.471 166.122 260.578 177.594 260.578 177.594Z" fill="#0993BD"/>
<path opacity="0.5" d="M260.578 177.594L269.424 184.181C269.424 184.181 275.728 177.121 272.099 171.622C268.471 166.122 260.578 177.594 260.578 177.594Z" fill="white"/>
</svg>
