<svg width="34" height="34" viewBox="0 0 34 34" fill="none" xmlns="http://www.w3.org/2000/svg">
<path d="M19.55 34C27.7292 32.7626 34 25.6654 34 17.0955C34 7.6539 26.3888 0 17 0C7.61116 0 0 7.6539 0 17.0955C0 25.6654 6.27086 32.7626 14.45 34V22.2241H11.9C10.4917 22.2241 9.35 21.076 9.35 19.6598C9.35 18.2436 10.4917 17.0955 11.9 17.0955H14.45V13.6764C14.45 10.3718 17.1139 7.69297 20.4 7.69297H21.25C22.6583 7.69297 23.8 8.84105 23.8 10.2573C23.8 11.6735 22.6583 12.8216 21.25 12.8216H20.4C19.9306 12.8216 19.55 13.2043 19.55 13.6764V17.0955H22.1C23.5083 17.0955 24.65 18.2436 24.65 19.6598C24.65 21.076 23.5083 22.2241 22.1 22.2241H19.55V34Z" fill="#F6F6F6"/>
</svg>
