<svg width="33" height="34" viewBox="0 0 33 34" fill="none" xmlns="http://www.w3.org/2000/svg">
<path d="M8.5321 0.56105C9.58271 0.918342 10.8823 1.48779 12.1411 2.33669C13.6666 1.94341 15.2957 1.73191 16.9838 1.73191C18.6701 1.73191 20.2976 1.94299 21.8218 2.33551C23.0803 1.48703 24.3796 0.917867 25.4299 0.560761C26.6134 0.158361 28.3004 -0.495051 29.3019 0.614479C29.9819 1.36775 30.1505 2.63198 30.2718 3.59583C30.4073 4.67289 30.4389 6.07682 30.0824 7.46878C31.446 9.2296 32.2687 11.3316 32.2687 13.6202C32.2687 17.0885 30.3902 20.0989 27.6098 22.1841C26.3302 23.1438 24.8424 23.9244 23.2109 24.4874C23.575 25.3201 23.7771 26.2399 23.7771 27.2067V32.3017C23.7771 33.2397 23.0166 34 22.0788 34H11.8887C10.9508 34 10.1904 33.2397 10.1904 32.3017V30.6181C8.56798 30.8168 7.20831 30.6411 6.05085 30.1501C4.842 29.6372 3.99943 28.8417 3.36616 28.0817C2.76547 27.3609 2.11058 25.7375 1.16173 25.4213C0.271908 25.1246 -0.208988 24.1628 0.0876066 23.2731C0.384218 22.3831 1.34601 21.9024 2.23583 22.1989C3.36654 22.5757 4.10278 23.3913 4.60828 24.0455C5.42188 25.0983 6.08658 26.4756 7.37741 27.0231C7.90824 27.2483 8.68811 27.3978 9.90553 27.23L10.1905 27.1731C10.1951 26.2185 10.3967 25.3104 10.7566 24.4874C9.12503 23.9244 7.63719 23.1438 6.35757 22.1841C3.57718 20.0989 1.69882 17.0885 1.69882 13.6202C1.69882 11.3342 2.51952 9.23449 3.88019 7.47493C3.52238 6.08188 3.55359 4.67644 3.68903 3.59831C3.69175 3.57666 3.69447 3.55492 3.6972 3.53309C3.82097 2.54555 3.96683 1.38176 4.65903 0.614666C5.66034 -0.494932 7.34864 0.158599 8.5321 0.56105Z" fill="white"/>
</svg>
