<svg width="38" height="34" viewBox="0 0 38 34" fill="none" xmlns="http://www.w3.org/2000/svg">
<path d="M3.18742 1.96851C3.9257 1.88245 4.6508 2.2129 5.07019 2.82654C8.02087 7.14405 11.5649 8.94012 15.4974 9.34875C15.6904 7.66641 16.1444 6.00416 16.9977 4.54068C18.2495 2.39343 20.2855 0.812597 23.1938 0.228453C27.2125 -0.578725 30.2724 0.876636 32.0479 2.65901L35.6314 1.98911C36.397 1.84603 37.1758 2.16022 37.6278 2.79436C38.0796 3.42851 38.1224 4.26728 37.7372 4.94409L34.2983 10.9881C34.6119 19.7106 32.1879 25.7979 27.0199 29.9918C24.2783 32.2163 20.3555 33.4781 16.0494 33.8677C11.7096 34.2603 6.8041 33.7855 1.9276 32.3615C1.07206 32.1117 0.485074 31.3259 0.488234 30.4348C0.491374 29.5434 1.08388 28.7618 1.94115 28.518C4.39353 27.8206 6.26008 27.2176 7.94733 26.1647C5.55048 24.8921 3.78441 23.2285 2.53446 21.332C0.797166 18.6959 0.152964 15.7572 0.0250673 13.1066C-0.102809 10.4564 0.28018 8.00172 0.683549 6.23011C0.913163 5.22162 1.18136 4.20843 1.55103 3.24055C1.81952 2.54297 2.44916 2.05458 3.18742 1.96851Z" fill="white"/>
</svg>
